<?xml version="1.0" encoding="UTF-8" standalone="no"?>
<!-- Generator: Adobe Illustrator 13.0.2, SVG Export Plug-In . SVG Version: 6.00 Build 14948)  -->

<svg
   xmlns:dc="http://purl.org/dc/elements/1.1/"
   xmlns:cc="http://creativecommons.org/ns#"
   xmlns:rdf="http://www.w3.org/1999/02/22-rdf-syntax-ns#"
   xmlns:svg="http://www.w3.org/2000/svg"
   xmlns="http://www.w3.org/2000/svg"
   xmlns:sodipodi="http://sodipodi.sourceforge.net/DTD/sodipodi-0.dtd"
   xmlns:inkscape="http://www.inkscape.org/namespaces/inkscape"
   version="1.2"
   id="Layer_1"
   x="0px"
   y="0px"
   width="50.388271"
   height="45.354332"
   viewBox="0 0 50.388271 45.354333"
   xml:space="preserve"
   sodipodi:docname="oshw-logo-outline.svg"
   inkscape:version="0.92.3 (2405546, 2018-03-11)"><metadata
   id="metadata45"><rdf:RDF><cc:Work
       rdf:about=""><dc:format>image/svg+xml</dc:format><dc:type
         rdf:resource="http://purl.org/dc/dcmitype/StillImage" /><dc:title></dc:title></cc:Work></rdf:RDF></metadata><defs
   id="defs43" /><sodipodi:namedview
   pagecolor="#ffffff"
   bordercolor="#666666"
   borderopacity="1"
   objecttolerance="10"
   gridtolerance="10"
   guidetolerance="10"
   inkscape:pageopacity="0"
   inkscape:pageshadow="2"
   inkscape:window-width="1873"
   inkscape:window-height="1056"
   id="namedview41"
   showgrid="false"
   fit-margin-top="0"
   fit-margin-left="0"
   fit-margin-right="0"
   fit-margin-bottom="0"
   inkscape:zoom="0.5"
   inkscape:cx="66.944003"
   inkscape:cy="30.015189"
   inkscape:window-x="47"
   inkscape:window-y="24"
   inkscape:window-maximized="1"
   inkscape:current-layer="Layer_1" />

















<g
   id="g38"
   transform="matrix(0.37634644,0,0,0.37634644,-7.216443,0)">
	<path
   d="m 152.336,57.604 -16.439,-3.057 c -0.4,-0.075 -0.838,-0.451 -0.973,-0.837 l -5.039,-11.756 c -0.188,-0.363 -0.152,-0.933 0.08,-1.271 l 9.578,-13.96 c 0.229,-0.336 0.184,-0.847 -0.105,-1.136 L 127.475,13.624 c -0.289,-0.289 -0.799,-0.336 -1.135,-0.105 l -14.205,9.748 c -0.336,0.231 -0.912,0.272 -1.277,0.092 L 99.462,18.694 c -0.387,-0.128 -0.764,-0.561 -0.84,-0.962 L 95.457,0.729 C 95.383,0.328 94.988,0 94.58,0 H 77.66 C 77.253,0 76.858,0.328 76.784,0.729 L 73.62,17.732 c -0.076,0.401 -0.452,0.834 -0.84,0.962 l -11.397,4.665 c -0.366,0.18 -0.942,0.139 -1.277,-0.092 L 45.902,13.519 c -0.337,-0.231 -0.848,-0.184 -1.136,0.105 L 32.802,25.587 c -0.288,0.289 -0.336,0.8 -0.105,1.136 l 9.579,13.96 c 0.23,0.338 0.266,0.908 0.079,1.271 l -5.04,11.756 c -0.134,0.386 -0.571,0.762 -0.973,0.837 l -16.438,3.057 c -0.402,0.076 -0.729,0.47 -0.729,0.878 l 10e-4,16.919 c 0,0.408 0.328,0.805 0.729,0.878 l 16.035,2.984 c 0.401,0.073 0.83,0.454 0.952,0.843 l 5.006,12.505 c 0.179,0.367 0.137,0.941 -0.095,1.277 l -9.108,13.273 c -0.23,0.336 -0.183,0.848 0.105,1.137 l 11.965,11.963 c 0.288,0.287 0.799,0.334 1.136,0.105 l 13.038,-8.949 c 0.336,-0.23 0.899,-0.248 1.25,-0.043 l 5.75,3.07 c 0.364,0.186 0.789,0.029 0.945,-0.348 L 78.74,85.449 c 0.157,-0.377 0,-0.858 -0.348,-1.071 l -1.439,-0.881 c -0.266,-0.162 -0.627,-0.441 -0.91,-0.697 -5.191,-3.324 -8.635,-9.139 -8.635,-15.761 0,-10.334 8.378,-18.711 18.711,-18.711 10.333,0 18.71,8.377 18.71,18.711 0,6.622 -3.443,12.437 -8.635,15.761 -0.281,0.256 -0.643,0.535 -0.908,0.697 l -1.439,0.881 c -0.346,0.213 -0.504,0.694 -0.348,1.071 l 11.855,28.648 c 0.156,0.377 0.58,0.533 0.945,0.348 l 5.75,-3.07 c 0.352,-0.205 0.914,-0.188 1.25,0.043 l 13.039,8.949 c 0.336,0.229 0.848,0.182 1.135,-0.105 l 11.965,-11.963 c 0.289,-0.289 0.336,-0.801 0.105,-1.137 l -9.109,-13.273 c -0.23,-0.336 -0.273,-0.91 -0.094,-1.277 l 5.006,-12.505 c 0.123,-0.389 0.549,-0.77 0.951,-0.843 l 16.035,-2.984 c 0.4,-0.073 0.729,-0.47 0.729,-0.878 l 0.002,-16.919 c 0.001,-0.409 -0.327,-0.803 -0.727,-0.879 z m -2.874,15.947 -13.822,2.572 c -1.047,0.207 -1.727,0.645 -2.313,1.151 -0.531,0.487 -1.004,1.053 -1.337,1.934 l -4.971,12.415 c -0.317,0.736 -0.384,1.356 -0.39,1.924 0.021,0.896 0.168,1.758 0.84,2.781 l 7.834,11.416 -8.782,8.781 -11.184,-7.676 c -0.979,-0.648 -1.855,-0.805 -2.705,-0.818 -0.717,0.008 -1.453,0.127 -2.276,0.568 h -10e-4 l -2.903,1.551 -9.744,-23.547 c 0.234,-0.169 0.45,-0.343 0.668,-0.528 C 104.423,82.1 108.43,75.227 108.43,67.438 108.428,55.114 98.443,45.128 86.12,45.126 73.798,45.128 63.812,55.114 63.808,67.438 c 0.002,7.789 4.008,14.661 10.056,18.636 0.216,0.184 0.431,0.357 0.668,0.528 l -9.743,23.548 -2.903,-1.551 c -0.835,-0.447 -1.583,-0.561 -2.281,-0.568 -0.86,0.014 -1.729,0.172 -2.708,0.822 l -11.177,7.672 -8.784,-8.781 7.835,-11.42 c 0.666,-1.021 0.817,-1.878 0.838,-2.777 -0.008,-0.582 -0.082,-1.203 -0.388,-1.92 L 40.242,79.185 C 39.907,78.309 39.433,77.752 38.908,77.27 38.319,76.766 37.645,76.331 36.588,76.122 L 22.777,73.552 22.776,61.133 37,58.484 c 1.031,-0.207 1.692,-0.624 2.277,-1.111 0.521,-0.463 0.994,-0.997 1.346,-1.846 l 0.002,10e-4 5.01,-11.69 c 0.338,-0.739 0.433,-1.396 0.439,-2.036 -0.019,-0.875 -0.164,-1.731 -0.819,-2.743 l -8.316,-12.117 8.782,-8.782 12.348,8.475 c 1.031,0.672 1.878,0.813 2.774,0.833 0.586,-0.005 1.206,-0.08 1.926,-0.389 l 11.354,-4.647 c 0.879,-0.346 1.433,-0.826 1.907,-1.352 0.494,-0.586 0.915,-1.248 1.126,-2.276 L 79.91,4 h 12.418 l 2.752,14.79 c 0.216,1.047 0.637,1.707 1.13,2.291 0.478,0.53 1.032,1.01 1.919,1.357 l 11.356,4.649 c 0.712,0.303 1.318,0.377 1.908,0.385 0.888,-0.023 1.744,-0.162 2.774,-0.833 l 12.352,-8.478 8.781,8.783 -8.305,12.103 c -0.668,0.997 -0.814,1.876 -0.834,2.757 0.006,0.625 0.098,1.263 0.413,1.97 l 5.038,11.756 h 0.001 c 0.354,0.85 0.827,1.383 1.349,1.846 0.583,0.485 1.238,0.902 2.272,1.111 l 14.228,2.646 z"
   id="path36"
   inkscape:connector-curvature="0"
   style="fill:#333333" />
</g>
</svg>